<?xml version="1.0" encoding="UTF-8" standalone="no"?>
<!-- Created with Inkscape (http://www.inkscape.org/) -->

<svg
   xmlns:dc="http://purl.org/dc/elements/1.1/"
   xmlns:cc="http://creativecommons.org/ns#"
   xmlns:rdf="http://www.w3.org/1999/02/22-rdf-syntax-ns#"
   xmlns:svg="http://www.w3.org/2000/svg"
   xmlns="http://www.w3.org/2000/svg"
   xmlns:sodipodi="http://sodipodi.sourceforge.net/DTD/sodipodi-0.dtd"
   xmlns:inkscape="http://www.inkscape.org/namespaces/inkscape"
   width="41.735733mm"
   height="33.523357mm"
   viewBox="0 0 41.735733 33.523357"
   version="1.1"
   id="svg8"
   inkscape:version="0.92.4 (5da689c313, 2019-01-14)"
   sodipodi:docname="NS.svg">
  <defs
     id="defs2">
    <clipPath
       id="clipPath835"
       clipPathUnits="userSpaceOnUse">
      <path
         inkscape:connector-curvature="0"
         id="path833"
         d="M 0,898.58 H 1272.76 V 0 H 0 Z" />
    </clipPath>
  </defs>
  <sodipodi:namedview
     id="base"
     pagecolor="#ffffff"
     bordercolor="#666666"
     borderopacity="1.0"
     inkscape:pageopacity="0.0"
     inkscape:pageshadow="2"
     inkscape:zoom="0.35"
     inkscape:cx="-6.3312247"
     inkscape:cy="-65.220188"
     inkscape:document-units="mm"
     inkscape:current-layer="layer1"
     showgrid="false"
     fit-margin-top="0"
     fit-margin-left="0"
     fit-margin-right="0"
     fit-margin-bottom="0"
     inkscape:window-width="1278"
     inkscape:window-height="1008"
     inkscape:window-x="-7"
     inkscape:window-y="0"
     inkscape:window-maximized="0" />
  <metadata
     id="metadata5">
    <rdf:RDF>
      <cc:Work
         rdf:about="">
        <dc:format>image/svg+xml</dc:format>
        <dc:type
           rdf:resource="http://purl.org/dc/dcmitype/StillImage" />
        <dc:title></dc:title>
      </cc:Work>
    </rdf:RDF>
  </metadata>
  <g
     inkscape:label="Layer 1"
     inkscape:groupmode="layer"
     id="layer1"
     transform="translate(-67.578562,-98.053799)">
    <g
       transform="matrix(0.05330663,0,0,-0.05330663,54.495798,137.8612)"
       id="g829">
      <g
         clip-path="url(#clipPath835)"
         id="g831">
        <g
           transform="translate(340.5527,258.8848)"
           id="g837">
          <path
             inkscape:connector-curvature="0"
             id="path839"
             style="fill:#ffffff;fill-opacity:1;fill-rule:nonzero;stroke:none"
             d="m 0,0 c 0,0 27.109,-76.068 31.327,-87.9 4.287,-11.927 11.645,-14.55 11.645,-14.55 L 29.029,-141 H 56.328 L 112.654,0 H 83.225 L 53.024,-72.846 28.257,0 Z m 559.196,0 c 0,0 27.063,-76.068 31.352,-87.9 4.239,-11.927 11.62,-14.551 11.62,-14.551 L 588.228,-141 h 27.294 l 56.33,141 h -29.43 L 612.222,-72.846 587.43,0 Z M 413.997,0 c 0,0 -1.641,0.047 -3.842,-1.805 -2.765,-2.354 -2.556,-10.016 -2.556,-10.016 v -90.629 h 28.704 v 80.565 h 27.718 v -80.565 h 27.743 v 80.565 h 16.378 c 5.386,0 9.371,-1.253 11.831,-3.971 2.929,-2.941 3.469,-5.717 3.469,-15.757 v -60.837 h 27.811 v 65.241 c 0,11.353 -3.045,21.217 -8.389,27.766 C 536.913,-2.273 529.041,0 512.054,0 Z M 367.136,-62.033 H 321.28 c 0.517,-7.814 2.228,-8.271 6.82,-11.599 3.654,-2.752 7.683,-3.632 15.675,-3.632 h 43.816 v -25.186 h -46.44 c -14.738,0 -22.939,2.517 -31.376,9.665 -11.105,9.266 -16.821,24.004 -16.821,42.925 0,17.888 7.076,34.29 18.157,42.538 C 318.212,-2.109 326.6,0 339.205,0 h 1.288 3.164 5.484 c 12.651,0 21.041,-2.109 28.115,-7.322 11.108,-8.248 18.206,-24.65 18.206,-42.538 0,-4.042 0,-8.541 -0.584,-12.173 h -19.684 z m -25.985,40.148 c -13.989,0 -18.792,-4.182 -19.871,-18.288 h 45.856 c -1.125,14.106 -5.952,18.288 -19.939,18.288 z M 236.159,0 H 219.92 v -26.523 h 16.239 v -37.409 c 0,-16.611 1.897,-24.214 8.246,-30.729 4.921,-5.506 11.832,-7.789 22.565,-7.789 h 16.939 v 25.363 h -8.528 c -5.366,0 -8.037,1.688 -10.075,5.072 -1.734,2.777 -2.133,5.893 -2.133,16.437 v 29.055 h 22.353 V 0 h -21.697 v 29.322 h -27.67 z M -7.942,0 h -53.634 c -10.732,0 -16.284,-1.23 -20.69,-4.827 -6.7,-5.647 -10.683,-14.949 -10.683,-25.059 0,-10.486 3.983,-20.198 10.472,-25.645 5.554,-4.838 11.318,-6.303 23.572,-6.303 h 13.308 c 6.257,0 15.558,0.913 15.441,-6.536 -0.046,-4.594 -2.295,-6.198 -6.303,-6.819 -2.085,-0.21 -3.327,-0.422 -9.652,-0.422 h -49.017 v -26.839 h 56.467 c 10.52,0 17.222,0.843 20.877,2.741 8.763,4.217 15.089,16.812 15.089,29.452 0,18.721 -11.645,31.69 -32.1,31.69 h -15.137 c -7.473,0 -16.634,-0.668 -16.634,6.138 0,7.358 2.67,6.573 14.128,6.573 h 44.496 z m 215.49,-25.856 h -44.447 c -11.48,0 -14.152,0.785 -14.152,-6.573 0,-6.806 9.161,-6.138 16.658,-6.138 h 15.09 c 20.431,0 32.171,-12.969 32.171,-31.69 0,-12.64 -6.35,-25.235 -15.159,-29.452 -3.633,-1.898 -10.311,-2.741 -20.83,-2.741 h -56.517 v 26.839 h 49.018 c 6.302,0 7.569,0.212 9.677,0.422 3.983,0.621 6.255,2.225 6.327,6.819 0.071,7.449 -9.185,6.536 -15.512,6.536 h -13.309 c -12.206,0 -17.97,1.465 -23.523,6.303 -6.467,5.447 -10.521,15.159 -10.521,25.645 0,10.11 4.054,19.412 10.731,25.059 C 137.631,-1.23 143.184,0 153.939,0 h 53.609 z" />
        </g>
        <g
           transform="translate(789.3447,745.1641)"
           id="g841">
          <path
             inkscape:connector-curvature="0"
             id="path843"
             style="fill:#fbc707;fill-opacity:1;fill-rule:nonzero;stroke:none"
             d="m 0,0 c -40.84,0 -69.472,-6.876 -85.897,-20.671 -27.462,-23.35 -41.167,-54.939 -41.167,-94.753 0,-20.965 4.029,-40.448 12.09,-58.502 8.059,-18.064 19.026,-32.381 32.918,-43.036 11.318,-8.441 23.62,-14.28 36.857,-17.449 13.237,-3.193 32.078,-4.821 56.516,-4.821 h 62.817 c 23.689,0 38.801,-1.717 45.339,-5.161 12.112,-6.098 18.158,-17.397 18.158,-33.839 0,-19.618 -9.162,-30.508 -27.602,-32.628 -8.27,-0.797 -23.969,-1.201 -46.931,-1.201 h -184.493 v -84.784 H 93.042 c 37.817,0 64.95,3.058 81.282,9.185 16.402,6.068 30.391,18.451 41.987,36.997 15.137,24.122 22.706,50.552 22.706,79.202 0,37.963 -12.629,66.731 -37.842,86.359 -22.68,17.808 -53.585,26.694 -92.645,26.694 H 47.259 c -27.459,0 -44.26,2.12 -50.306,6.396 -11.341,7.392 -17.012,18.165 -17.012,32.212 0,16.999 5.931,27.595 17.787,31.848 5.809,2.137 19.188,3.157 40.087,3.157 H 221.606 V 0 Z m -542.188,-386.875 v 328.339 c 0,0 -1.499,57.887 53.188,59.363 46.814,1.265 59.537,0.644 83.578,0.427 47.611,-0.427 57.193,-58.272 57.193,-58.272 l 81.704,-260.35 V 0.247 h 103.072 v -329.823 c 0,0 -2.892,-68.508 -60.892,-71.008 -24.682,-1.48 -32.125,-1.071 -57.48,-0.021 -54.313,2.859 -75.517,60.732 -75.517,60.732 l -84.866,261.744 1.617,-305.642 c 0,0 4.007,-14.924 -10.708,-16.073 -14.667,-1.101 -63.358,-1.254 -76.384,-1.476 -12.958,-0.27 -14.505,14.445 -14.505,14.445" />
        </g>
      </g>
    </g>
  </g>
</svg>
