<?xml version="1.0" encoding="UTF-8" standalone="no"?>
<!-- Created with Inkscape (http://www.inkscape.org/) -->

<svg
   xmlns:dc="http://purl.org/dc/elements/1.1/"
   xmlns:cc="http://creativecommons.org/ns#"
   xmlns:rdf="http://www.w3.org/1999/02/22-rdf-syntax-ns#"
   xmlns:svg="http://www.w3.org/2000/svg"
   xmlns="http://www.w3.org/2000/svg"
   xmlns:sodipodi="http://sodipodi.sourceforge.net/DTD/sodipodi-0.dtd"
   xmlns:inkscape="http://www.inkscape.org/namespaces/inkscape"
   width="41.643627mm"
   height="21.490416mm"
   viewBox="0 0 41.643627 21.490416"
   version="1.1"
   id="svg8"
   inkscape:version="0.92.4 (5da689c313, 2019-01-14)"
   sodipodi:docname="NSonly.svg">
  <defs
     id="defs2" />
  <sodipodi:namedview
     id="base"
     pagecolor="#ffffff"
     bordercolor="#666666"
     borderopacity="1.0"
     inkscape:pageopacity="0.0"
     inkscape:pageshadow="2"
     inkscape:zoom="0.98994949"
     inkscape:cx="-288.05077"
     inkscape:cy="8.179199"
     inkscape:document-units="mm"
     inkscape:current-layer="layer1"
     showgrid="false"
     fit-margin-top="0"
     fit-margin-left="0"
     fit-margin-right="0"
     fit-margin-bottom="0"
     inkscape:window-width="2560"
     inkscape:window-height="1017"
     inkscape:window-x="-8"
     inkscape:window-y="-8"
     inkscape:window-maximized="1" />
  <metadata
     id="metadata5">
    <rdf:RDF>
      <cc:Work
         rdf:about="">
        <dc:format>image/svg+xml</dc:format>
        <dc:type
           rdf:resource="http://purl.org/dc/dcmitype/StillImage" />
        <dc:title></dc:title>
      </cc:Work>
    </rdf:RDF>
  </metadata>
  <g
     inkscape:label="Layer 1"
     inkscape:groupmode="layer"
     id="layer1"
     transform="translate(-95.594854,-88.195266)">
    <path
       inkscape:connector-curvature="0"
       id="path843"
       style="fill:#fbc707;fill-opacity:1;fill-rule:nonzero;stroke:none;stroke-width:0.05330664"
       d="m 124.49729,88.280479 c -2.17704,0 -3.70332,0.366536 -4.57888,1.101901 -1.46391,1.24471 -2.19448,2.928613 -2.19448,5.050964 0,1.117573 0.21478,2.156146 0.64448,3.118544 0.4296,0.962931 1.01421,1.726122 1.75475,2.294104 0.60332,0.449958 1.2591,0.761218 1.96472,0.930148 0.70562,0.17021 1.70997,0.25699 3.01268,0.25699 h 3.34856 c 1.26278,0 2.06835,0.0915 2.41687,0.27512 0.64565,0.32506 0.96794,0.92737 0.96794,1.80384 0,1.04577 -0.48839,1.62628 -1.47137,1.73929 -0.44084,0.0425 -1.2777,0.064 -2.50173,0.064 h -9.8347 v 4.51955 h 11.43091 c 2.0159,0 3.46227,-0.16301 4.33287,-0.48962 0.87434,-0.32347 1.62005,-0.98356 2.23819,-1.97219 0.8069,-1.28586 1.21038,-2.69475 1.21038,-4.22199 0,-2.02368 -0.67321,-3.557205 -2.01723,-4.603508 -1.209,-0.949283 -2.85644,-1.422966 -4.93859,-1.422966 h -3.26615 c -1.46375,0 -2.35936,-0.11301 -2.68165,-0.340949 -0.60455,-0.394043 -0.90685,-0.968315 -0.90685,-1.717114 0,-0.906159 0.31616,-1.470996 0.94816,-1.697709 0.30966,-0.113917 1.02285,-0.168289 2.13691,-0.168289 h 9.79728 V 88.280479 Z M 95.59507,108.90348 V 91.400836 c 0,0 -0.07991,-3.085761 2.835273,-3.164442 2.495497,-0.06743 3.173717,-0.03433 4.455267,-0.02276 2.53798,0.02276 3.04876,3.106285 3.04876,3.106285 l 4.35537,13.878381 V 88.267312 h 5.49442 v 17.581758 c 0,0 -0.15416,3.65193 -3.24595,3.78519 -1.31571,0.0789 -1.71247,0.0571 -3.06406,0.001 -2.89525,-0.15239 -4.02556,-3.23741 -4.02556,-3.23741 l -4.52392,-13.952677 0.0862,16.292747 c 0,0 0.2136,0.79555 -0.5708,0.8568 -0.781852,0.0587 -3.377405,0.0669 -4.071777,0.0787 -0.690748,0.0144 -0.773213,-0.77002 -0.773213,-0.77002" />
  </g>
</svg>
