<?xml version="1.0" encoding="UTF-8" standalone="no"?>
<!-- Created with Inkscape (http://www.inkscape.org/) -->

<svg
   xmlns:dc="http://purl.org/dc/elements/1.1/"
   xmlns:cc="http://creativecommons.org/ns#"
   xmlns:rdf="http://www.w3.org/1999/02/22-rdf-syntax-ns#"
   xmlns:svg="http://www.w3.org/2000/svg"
   xmlns="http://www.w3.org/2000/svg"
   xmlns:sodipodi="http://sodipodi.sourceforge.net/DTD/sodipodi-0.dtd"
   xmlns:inkscape="http://www.inkscape.org/namespaces/inkscape"
   width="93.211952mm"
   height="25.698313mm"
   viewBox="0 0 93.211952 25.698313"
   version="1.1"
   id="svg8"
   inkscape:version="0.92.4 (5da689c313, 2019-01-14)"
   sodipodi:docname="nssystemy-poziome.svg">
  <defs
     id="defs2">
    <clipPath
       clipPathUnits="userSpaceOnUse"
       id="clipPath20">
      <path
         d="M 0,898.58 H 1272.76 V 0 H 0 Z"
         id="path18"
         inkscape:connector-curvature="0" />
    </clipPath>
  </defs>
  <sodipodi:namedview
     id="base"
     pagecolor="#ffffff"
     bordercolor="#666666"
     borderopacity="1.0"
     inkscape:pageopacity="0.0"
     inkscape:pageshadow="2"
     inkscape:zoom="0.24748737"
     inkscape:cx="-235.48015"
     inkscape:cy="-765.19709"
     inkscape:document-units="mm"
     inkscape:current-layer="layer1"
     showgrid="false"
     inkscape:window-width="1278"
     inkscape:window-height="1008"
     inkscape:window-x="-7"
     inkscape:window-y="0"
     inkscape:window-maximized="0"
     fit-margin-top="0"
     fit-margin-left="0"
     fit-margin-right="0"
     fit-margin-bottom="0" />
  <metadata
     id="metadata5">
    <rdf:RDF>
      <cc:Work
         rdf:about="">
        <dc:format>image/svg+xml</dc:format>
        <dc:type
           rdf:resource="http://purl.org/dc/dcmitype/StillImage" />
        <dc:title></dc:title>
      </cc:Work>
    </rdf:RDF>
  </metadata>
  <g
     inkscape:label="Layer 1"
     inkscape:groupmode="layer"
     id="layer1"
     transform="translate(-46.376165,-129.93656)">
    <g
       id="g14"
       transform="matrix(0.20087576,0,0,-0.20087576,-6.5950999,224.37993)">
      <g
         id="g16"
         clip-path="url(#clipPath20)"
         transform="translate(-9.4544139e-6,-2.343608e-6)">
        <g
           id="g22"
           transform="translate(340.5527,258.8848)">
          <path
             d="m 181.60434,126.48495 c 0,0 8.29478,-23.27519 9.5854,-26.895542 1.31173,-3.64941 3.56313,-4.45199 3.56313,-4.45199 L 190.4866,83.341937 h 8.35292 l 17.23456,43.143013 h -9.00465 l -9.24086,-22.28933 -7.57818,22.28933 z m 171.10215,0 c 0,0 8.28069,-23.27519 9.59304,-26.895542 1.29704,-3.64941 3.55547,-4.45229 3.55547,-4.45229 l -4.26535,-11.795181 h 8.35139 l 17.23579,43.143013 h -9.00496 l -9.24056,-22.28933 -7.58583,22.28933 z m -44.42782,0 c 0,0 -0.50212,0.0144 -1.17557,-0.55229 -0.84604,-0.72027 -0.78209,-3.06468 -0.78209,-3.06468 V 95.137418 h 8.78282 v 24.651192 h 8.48112 V 95.137418 h 8.48877 v 24.651192 h 5.01132 c 1.64801,0 2.86733,-0.3834 3.62004,-1.21505 0.89621,-0.89988 1.06144,-1.74928 1.06144,-4.8213 V 95.137418 h 8.50958 v 19.962372 c 0,3.47377 -0.93171,6.49195 -2.56686,8.4958 -1.82088,2.19387 -4.22955,2.88936 -9.42721,2.88936 z m -14.33848,-18.98078 h -14.03096 c 0.15819,-2.39092 0.68172,-2.53075 2.08677,-3.54905 1.11805,-0.84205 2.35084,-1.11131 4.79622,-1.11131 h 13.40677 v -7.706392 h -14.20966 c -4.50951,0 -7.01885,0.77015 -9.60039,2.95729 -3.39789,2.835202 -5.14687,7.344712 -5.14687,13.134142 0,5.47335 2.16511,10.49201 5.55566,13.01573 2.17275,1.59506 4.7393,2.24037 8.59617,2.24037 h 0.3941 0.96812 1.67798 c 3.87094,0 6.4381,-0.64531 8.6026,-2.24037 3.39881,-2.52372 5.57065,-7.54238 5.57065,-13.01573 0,-1.23677 0,-2.61337 -0.17869,-3.72468 h -6.02289 z m -7.95086,12.28444 c -4.28034,0 -5.74995,-1.27961 -6.0801,-5.59574 h 14.03096 c -0.34422,4.31613 -1.82118,5.59574 -6.10091,5.59574 z m -32.12533,6.69634 h -4.96879 v -8.11547 h 4.96879 v -11.44636 c 0,-5.08262 0.58045,-7.408982 2.5231,-9.402432 1.50573,-1.68472 3.62035,-2.38327 6.90442,-2.38327 h 5.18297 v 7.760542 h -2.60939 c -1.64188,0 -2.45915,0.5165 -3.08273,1.55193 -0.53057,0.8497 -0.65265,1.80313 -0.65265,5.02937 v 8.89022 h 6.83954 v 8.11547 h -6.63882 v 8.97191 H 253.864 Z m -74.68974,0 h -16.41087 c -3.28376,0 -4.98256,-0.37635 -6.3307,-1.47696 -2.05006,-1.72786 -3.26877,-4.57407 -3.26877,-7.66752 0,-3.20849 1.21871,-6.18016 3.20421,-7.84683 1.6994,-1.48032 3.46307,-1.92858 7.21253,-1.92858 h 4.07197 c 1.91451,0 4.76042,0.27936 4.72462,-1.99988 -0.0141,-1.40567 -0.70223,-1.89646 -1.92859,-2.08647 -0.63796,-0.0643 -1.01799,-0.12912 -2.95331,-0.12912 h -14.99816 v -8.212172 h 17.27771 c 3.21889,0 5.26956,0.25794 6.38792,0.83869 2.68129,1.29031 4.61691,5.144122 4.61691,9.011692 0,5.72823 -3.56312,9.69647 -9.82192,9.69647 h -4.6316 c -2.28658,0 -5.08965,-0.2044 -5.08965,1.87809 0,2.2514 0.81696,2.0112 4.32287,2.0112 h 13.61483 z m 65.93538,-7.91139 H 231.5098 c -3.51264,0 -4.33021,0.2402 -4.33021,-2.0112 0,-2.08249 2.80307,-1.87809 5.09699,-1.87809 h 4.61722 c 6.25146,0 9.84365,-3.96824 9.84365,-9.69647 0,-3.86757 -1.94297,-7.721382 -4.63833,-9.011692 -1.11162,-0.58075 -3.15495,-0.83869 -6.37355,-0.83869 h -17.293 v 8.212172 h 14.99847 c 1.92828,0 2.31595,0.0649 2.96096,0.12912 1.21871,0.19001 1.91389,0.6808 1.93592,2.08647 0.0217,2.27924 -2.81041,1.99988 -4.74634,1.99988 h -4.07227 c -3.73478,0 -5.49844,0.44826 -7.19754,1.92858 -1.97877,1.66667 -3.2192,4.63834 -3.2192,7.84683 0,3.09345 1.24043,5.93966 3.28345,7.66752 1.3405,1.10061 3.0396,1.47696 6.3304,1.47696 h 16.40322 z"
             style="fill:#ffffff;fill-opacity:1;fill-rule:nonzero;stroke:none;stroke-width:0.30597883"
             id="path24"
             inkscape:connector-curvature="0" />
        </g>
        <g
           id="g26"
           transform="translate(789.3447,745.1641)">
          <path
             d="m -370.06451,-275.46468 c -11.71877,0 -19.93455,-1.97303 -24.64759,-5.93141 -7.88005,-6.70014 -11.81261,-15.7644 -11.81261,-27.18877 0,-6.01578 1.15609,-11.6063 3.46915,-16.78678 2.31248,-5.18335 5.45938,-9.29152 9.44561,-12.34891 3.24763,-2.42209 6.77761,-4.09755 10.57588,-5.00687 3.79827,-0.91621 9.20457,-1.38336 16.2169,-1.38336 h 18.02494 c 6.79741,0 11.1337,-0.49268 13.00974,-1.48091 3.47546,-1.74979 5.21032,-4.99197 5.21032,-9.70989 0,-5.62926 -2.62898,-8.75407 -7.92022,-9.3624 -2.37302,-0.22869 -6.87775,-0.34462 -13.46655,-0.34462 h -52.93909 v -24.32822 h 61.53133 c 10.85135,0 18.63699,0.87747 23.32335,2.63557 4.70645,1.74118 8.7205,5.2944 12.04791,10.61606 4.34346,6.92165 6.51533,14.50557 6.51533,22.72651 0,10.89324 -3.62381,19.14803 -10.85851,24.78016 -6.50789,5.10989 -15.37588,7.65967 -26.58389,7.65967 h -17.58133 c -7.87918,0 -12.70013,0.60832 -14.43499,1.83529 -3.25422,2.12109 -4.88148,5.21234 -4.88148,9.24303 0,4.87776 1.70186,7.91821 5.10387,9.13858 1.66685,0.6132 5.50587,0.90588 11.50271,0.90588 h 52.73765 v 24.33139 z M -525.6419,-386.47599 v 94.21478 c 0,0 -0.43013,16.6103 15.26196,17.03383 13.43298,0.36298 17.08376,0.18479 23.98217,0.12253 13.66168,-0.12253 16.41117,-16.72078 16.41117,-16.72078 l 23.44444,-74.70578 v 91.1376 h 29.57586 v -94.6406 c 0,0 -0.82985,-19.65793 -17.47257,-20.37529 -7.08235,-0.42468 -9.21807,-0.30732 -16.49352,-0.006 -15.58478,0.82037 -21.66913,17.42665 -21.66913,17.42665 l -24.35175,75.10577 0.46398,-87.70202 c 0,0 1.14979,-4.28234 -3.07259,-4.61204 -4.2086,-0.31592 -18.18017,-0.35983 -21.9179,-0.42353 -3.71822,-0.0775 -4.16212,4.1449 -4.16212,4.1449"
             style="fill:#fbc707;fill-opacity:1;fill-rule:nonzero;stroke:none;stroke-width:0.28694361"
             id="path28"
             inkscape:connector-curvature="0" />
        </g>
      </g>
    </g>
  </g>
</svg>
