<?xml version="1.0" encoding="UTF-8" standalone="no"?>
<!-- Created with Inkscape (http://www.inkscape.org/) -->

<svg
   xmlns:dc="http://purl.org/dc/elements/1.1/"
   xmlns:cc="http://creativecommons.org/ns#"
   xmlns:rdf="http://www.w3.org/1999/02/22-rdf-syntax-ns#"
   xmlns:svg="http://www.w3.org/2000/svg"
   xmlns="http://www.w3.org/2000/svg"
   xmlns:sodipodi="http://sodipodi.sourceforge.net/DTD/sodipodi-0.dtd"
   xmlns:inkscape="http://www.inkscape.org/namespaces/inkscape"
   version="1.1"
   id="svg2"
   width="392.95999"
   height="278.39999"
   viewBox="0 0 392.95999 278.39999"
   sodipodi:docname="nssystemy.svg"
   inkscape:version="0.92.4 (5da689c313, 2019-01-14)">
  <metadata
     id="metadata8">
    <rdf:RDF>
      <cc:Work
         rdf:about="">
        <dc:format>image/svg+xml</dc:format>
        <dc:type
           rdf:resource="http://purl.org/dc/dcmitype/StillImage" />
        <dc:title></dc:title>
      </cc:Work>
    </rdf:RDF>
  </metadata>
  <defs
     id="defs6">
    <clipPath
       id="clipPath835"
       clipPathUnits="userSpaceOnUse">
      <path
         inkscape:connector-curvature="0"
         id="path833"
         d="M 0,898.58 H 1272.76 V 0 H 0 Z" />
    </clipPath>
  </defs>
  <sodipodi:namedview
     pagecolor="#ffffff"
     bordercolor="#666666"
     borderopacity="1"
     objecttolerance="10"
     gridtolerance="10"
     guidetolerance="10"
     inkscape:pageopacity="0"
     inkscape:pageshadow="2"
     inkscape:window-width="1278"
     inkscape:window-height="1008"
     id="namedview4"
     showgrid="false"
     inkscape:zoom="2.397661"
     inkscape:cx="133.66858"
     inkscape:cy="135.4821"
     inkscape:window-x="-7"
     inkscape:window-y="0"
     inkscape:window-maximized="0"
     inkscape:current-layer="svg2"
     showguides="true"
     inkscape:guide-bbox="true">
    <sodipodi:guide
       position="85.917067,309.05119"
       orientation="1,0"
       id="guide863"
       inkscape:locked="false" />
    <sodipodi:guide
       position="80.216947,250.08813"
       orientation="1,0"
       id="guide865"
       inkscape:locked="false" />
    <sodipodi:guide
       position="83.93597,245.23901"
       orientation="0,1"
       id="guide867"
       inkscape:locked="false" />
    <sodipodi:guide
       position="243.45254,255.98643"
       orientation="1,0"
       id="guide869"
       inkscape:locked="false" />
    <sodipodi:guide
       position="247.94999,261.73728"
       orientation="1,0"
       id="guide871"
       inkscape:locked="false" />
  </sodipodi:namedview>
  <g
     transform="matrix(0.20147389,0,0,-0.20147389,79.992025,214.27587)"
     inkscape:label="NS Systemy logo"
     id="g825">
    <path
       inkscape:connector-curvature="0"
       id="path827"
       style="fill:#333a42;fill-opacity:1;fill-rule:nonzero;stroke:none;stroke-width:0.67790627"
       d="M 1.129,267.87337 H 833.64632 V 898.58 H 1.129 Z" />
    <g
       id="g829">
      <g
         clip-path="url(#clipPath835)"
         id="g831">
        <g
           transform="translate(340.5527,258.8848)"
           id="g837">
          <path
             inkscape:connector-curvature="0"
             id="path839"
             style="fill:#ffffff;fill-opacity:1;fill-rule:nonzero;stroke:none"
             d="m -216.01621,172.8542 c 0,0 27.109,-76.068003 31.327,-87.900003 4.287,-11.927 11.645,-14.55 11.645,-14.55 l -13.943,-38.55 h 27.299 l 56.326,141.000003 h -29.429 l -30.201,-72.846 -24.767,72.846 z m 559.196,0 c 0,0 27.063,-76.068003 31.352,-87.900003 4.239,-11.927 11.62,-14.551 11.62,-14.551 l -13.94,-38.549 h 27.294 l 56.33,141.000003 h -29.43 l -30.2,-72.846 -24.792,72.846 z m -145.199,0 c 0,0 -1.641,0.047 -3.842,-1.805 -2.765,-2.354 -2.556,-10.016 -2.556,-10.016 V 70.404197 h 28.704 V 150.9692 h 27.718 V 70.404197 h 27.743 V 150.9692 h 16.378 c 5.386,0 9.371,-1.253 11.831,-3.971 2.929,-2.941 3.469,-5.717 3.469,-15.757 V 70.404197 h 27.811 V 135.6452 c 0,11.353 -3.045,21.217 -8.389,27.766 -5.951,7.17 -13.823,9.443 -30.81,9.443 z m -46.861,-62.033 h -45.856 c 0.517,-7.814 2.228,-8.271 6.82,-11.599003 3.654,-2.752 7.683,-3.632 15.675,-3.632 h 43.816 v -25.186 h -46.44 c -14.738,0 -22.939,2.517 -31.375996,9.665 -11.105,9.266 -16.821,24.004003 -16.821,42.925003 0,17.888 7.076,34.29 18.157,42.538 7.100996,5.213 15.488996,7.322 28.093996,7.322 h 1.288 3.164 5.484 c 12.651,0 21.041,-2.109 28.115,-7.322 11.108,-8.248 18.206,-24.65 18.206,-42.538 0,-4.042 0,-8.541 -0.584,-12.173 h -19.684 z m -25.985,40.148 c -13.989,0 -18.792,-4.182 -19.871,-18.288 h 45.856 c -1.125,14.106 -5.952,18.288 -19.939,18.288 z M 20.142794,172.8542 H 3.9037941 v -26.523 H 20.142794 v -37.409 c 0,-16.611003 1.897,-24.214003 8.246,-30.729003 4.921,-5.506 11.832,-7.789 22.565,-7.789 h 16.939 v 25.363 h -8.528 c -5.366,0 -8.037,1.688 -10.075,5.072003 -1.734,2.777 -2.133,5.893 -2.133,16.437 v 29.055 h 22.353 v 26.523 h -21.697 v 29.322 h -27.67 z m -244.101004,0 h -53.634 c -10.732,0 -16.284,-1.23 -20.69,-4.827 -6.7,-5.647 -10.683,-14.949 -10.683,-25.059 0,-10.486 3.983,-20.198 10.472,-25.645 5.554,-4.838 11.318,-6.303 23.572,-6.303 h 13.308 c 6.257,0 15.558,0.913 15.441,-6.536 -0.046,-4.594003 -2.295,-6.198003 -6.303,-6.819003 -2.085,-0.21 -3.327,-0.422 -9.652,-0.422 h -49.017 v -26.839 h 56.467 c 10.52,0 17.222,0.843 20.877,2.741 8.763,4.217 15.089,16.812 15.089,29.452003 0,18.721 -11.645,31.69 -32.1,31.69 h -15.137 c -7.473,0 -16.634,-0.668 -16.634,6.138 0,7.358 2.67,6.573 14.128,6.573 h 44.496 z M -8.4682056,146.9982 H -52.915206 c -11.48,0 -14.152,0.785 -14.152,-6.573 0,-6.806 9.161,-6.138 16.658,-6.138 h 15.09 c 20.431,0 32.1710001,-12.969 32.1710001,-31.69 0,-12.640003 -6.3499997,-25.235003 -15.1590001,-29.452003 -3.633,-1.898 -10.311,-2.741 -20.83,-2.741 h -56.517 v 26.839 h 49.018 c 6.302,0 7.569,0.212 9.677,0.422 3.983,0.621 6.255,2.225 6.327,6.819003 0.071,7.449 -9.185,6.536 -15.512,6.536 h -13.309 c -12.206,0 -17.97,1.465 -23.523,6.303 -6.467,5.447 -10.521,15.159 -10.521,25.645 0,10.11 4.054,19.412 10.731,25.059 4.381,3.597 9.934,4.827 20.689,4.827 h 53.6090004 z" />
        </g>
        <g
           transform="translate(789.3447,745.1641)"
           id="g841">
          <path
             inkscape:connector-curvature="0"
             id="path843"
             style="fill:#fbc707;fill-opacity:1;fill-rule:nonzero;stroke:none"
             d="m -217.74821,130.41694 c -40.84,0 -69.472,-6.876 -85.897,-20.671 -27.462,-23.350001 -41.167,-54.939001 -41.167,-94.753001 0,-20.9649999 4.029,-40.448 12.09,-58.502 8.059,-18.064 19.026,-32.381 32.918,-43.036 11.318,-8.441 23.62,-14.279999 36.857,-17.448999 13.237,-3.193 32.078,-4.821 56.516,-4.821 h 62.817 c 23.68899,0 38.80099,-1.717 45.338994,-5.161 12.112,-6.098 18.158,-17.397 18.158,-33.839 0,-19.618 -9.162,-30.508 -27.602004,-32.628 -8.27,-0.797 -23.969,-1.201 -46.93099,-1.201 h -184.493 v -84.784 h 214.43699 c 37.817004,0 64.950004,3.058 81.282004,9.185 16.402,6.068 30.391,18.451 41.9869999,36.997 15.1370001,24.122 22.7060001,50.552 22.7060001,79.202 0,37.963 -12.6289996,66.730999 -37.842,86.358999 -22.68,17.808 -53.585,26.694 -92.645004,26.694 h -61.27099 c -27.459,0 -44.26,2.12 -50.306,6.396 -11.341,7.392 -17.012,18.1650001 -17.012,32.212 0,16.999 5.931,27.595 17.787,31.848 5.809,2.137 19.188,3.157 40.087,3.157 H 3.8577839 v 84.795001 z m -542.188,-386.875 V 71.880939 c 0,0 -1.499,57.887001 53.188,59.363001 46.814,1.265 59.537,0.644 83.578,0.427 47.611,-0.427 57.193,-58.272001 57.193,-58.272001 l 81.704,-260.349999 v 317.615 h 103.072 v -329.823 c 0,0 -2.892,-68.508 -60.892,-71.008 -24.682,-1.48 -32.125,-1.071 -57.48,-0.021 -54.313,2.859 -75.517,60.732 -75.517,60.732 l -84.866,261.743999 1.617,-305.641999 c 0,0 4.007,-14.924 -10.708,-16.073 -14.667,-1.101 -63.358,-1.254 -76.384,-1.476 -12.958,-0.27 -14.505,14.445 -14.505,14.445" />
        </g>
      </g>
    </g>
  </g>
</svg>
